<?xml version="1.0" standalone="no"?>
<!DOCTYPE svg PUBLIC "-//W3C//DTD SVG 20010904//EN"
 "http://www.w3.org/TR/2001/REC-SVG-20010904/DTD/svg10.dtd">
<svg version="1.0" xmlns="http://www.w3.org/2000/svg"
 width="600.000000pt" height="318.000000pt" viewBox="0 0 600.000000 318.000000"
 preserveAspectRatio="xMidYMid meet">
<metadata>
Created by potrace 1.15, written by Peter Selinger 2001-2017
</metadata>
<g transform="translate(0.000000,318.000000) scale(0.100000,-0.100000)"
fill="#000000" stroke="none">
<path d="M586 3008 c-24 -59 -30 -152 -11 -187 50 -99 133 -35 119 92 -4 34
-12 77 -20 95 -11 26 -18 32 -44 32 -26 0 -33 -6 -44 -32z"/>
<path d="M902 3028 c-17 -21 -32 -90 -32 -145 0 -41 5 -58 26 -82 32 -38 48
-39 81 -3 24 25 25 32 21 108 -5 93 -24 134 -62 134 -13 0 -28 -6 -34 -12z"/>
<path d="M1204 3015 c-22 -34 -34 -141 -20 -185 6 -20 23 -41 39 -50 27 -15
29 -14 59 19 30 34 31 36 24 108 -7 90 -27 133 -61 133 -15 0 -31 -10 -41 -25z"/>
<path d="M1504 3009 c-10 -20 -16 -60 -17 -110 -2 -73 0 -80 25 -105 24 -25
30 -26 53 -16 43 20 57 69 45 154 -6 39 -18 80 -27 90 -26 29 -60 23 -79 -13z"/>
<path d="M1815 3016 c-25 -37 -32 -164 -11 -203 24 -48 54 -52 89 -13 29 32
29 36 24 112 -3 47 -12 89 -21 103 -22 33 -60 33 -81 1z"/>
<path d="M2119 3019 c-19 -37 -31 -149 -18 -186 14 -44 50 -68 78 -53 42 22
54 55 47 127 -4 36 -13 81 -21 99 -11 28 -19 34 -44 34 -21 0 -34 -7 -42 -21z"/>
<path d="M2424 3009 c-8 -17 -18 -64 -21 -104 -5 -69 -5 -73 25 -106 30 -33
32 -34 59 -19 38 21 52 69 43 148 -9 75 -31 112 -65 112 -17 0 -29 -9 -41 -31z"/>
<path d="M2734 3015 c-12 -19 -19 -54 -22 -110 -4 -79 -3 -85 21 -109 34 -34
50 -33 82 6 26 31 27 37 22 105 -7 90 -23 127 -59 131 -20 2 -31 -4 -44 -23z"/>
<path d="M3036 3008 c-24 -58 -30 -152 -12 -187 32 -61 80 -61 111 0 18 34 12
130 -11 187 -11 26 -18 32 -44 32 -26 0 -33 -6 -44 -32z"/>
<path d="M3352 3028 c-29 -37 -42 -170 -20 -211 13 -26 38 -46 56 -47 7 0 24
12 39 28 24 25 25 32 21 108 -5 93 -24 134 -62 134 -13 0 -28 -6 -34 -12z"/>
<path d="M3943 2903 c-136 -3 -163 -6 -163 -18 0 -8 8 -15 18 -15 9 0 163 -7
342 -15 291 -13 934 -31 1302 -38 136 -2 136 -2 175 -33 48 -39 89 -118 110
-214 14 -64 16 -159 17 -676 1 -636 1 -634 46 -634 10 0 21 8 26 18 4 9 10
283 12 608 3 505 1 604 -12 674 -34 179 -127 305 -247 333 -28 7 -1358 15
-1626 10z"/>
<path d="M631 2710 c-102 -22 -195 -108 -230 -211 -34 -105 -40 -232 -40 -859
0 -671 11 -907 47 -975 25 -50 84 -106 137 -133 100 -50 160 -54 869 -57 1811
-8 3873 -6 3921 5 52 12 126 54 162 92 56 59 96 198 112 386 12 129 -3 1153
-19 1357 -13 163 -28 212 -84 273 -52 57 -100 80 -209 103 -84 17 -213 18
-2355 23 -1392 3 -2284 2 -2311 -4z m3889 -128 l825 -7 52 -28 c83 -43 88 -60
74 -247 -10 -126 -9 -204 3 -420 11 -191 13 -335 7 -515 -4 -137 -5 -302 -2
-365 12 -234 -13 -331 -92 -369 -94 -44 -72 -43 -1722 -36 -863 4 -1899 8
-2301 9 l-730 1 -60 30 c-45 23 -63 39 -78 69 -17 35 -18 46 -6 159 8 76 11
173 7 257 -14 300 -25 996 -18 1155 6 155 9 175 31 215 14 24 39 52 57 62 82
48 58 48 1643 42 817 -3 1856 -8 2310 -12z"/>
<path d="M169 1928 c-10 -17 -13 -170 -16 -603 -3 -641 2 -704 57 -822 37 -81
108 -157 168 -180 44 -17 104 -18 929 -18 680 0 885 3 894 12 10 10 9 13 -2
17 -33 11 -1386 55 -1696 56 -88 0 -93 1 -135 33 -26 20 -54 55 -71 87 -54
108 -58 158 -60 811 -2 488 -4 599 -16 612 -19 23 -38 21 -52 -5z"/>
<path d="M2513 394 c-11 -17 -18 -54 -21 -108 -4 -76 -2 -84 20 -111 32 -36
70 -29 94 17 28 53 8 195 -30 220 -22 15 -46 8 -63 -18z"/>
<path d="M2827 402 c-21 -23 -41 -134 -33 -177 7 -34 43 -75 66 -75 9 0 27 12
41 26 21 23 24 34 22 96 -4 116 -51 180 -96 130z"/>
<path d="M3125 396 c-11 -17 -19 -55 -22 -108 -5 -75 -3 -86 17 -110 12 -17
31 -28 45 -28 14 0 33 11 45 28 19 24 22 36 18 102 -5 93 -23 134 -60 138 -20
2 -31 -4 -43 -22z"/>
<path d="M3435 396 c-19 -29 -37 -140 -28 -176 7 -32 42 -70 64 -70 27 0 69
57 69 94 0 56 -19 139 -37 158 -22 25 -50 23 -68 -6z"/>
<path d="M3754 412 c-21 -14 -32 -48 -39 -118 -8 -82 9 -130 50 -140 55 -14
88 50 75 149 -12 96 -44 137 -86 109z"/>
<path d="M4043 394 c-11 -17 -18 -54 -21 -108 -4 -72 -2 -84 18 -108 12 -16
30 -28 41 -28 11 0 32 12 46 28 24 25 25 32 20 103 -6 92 -27 139 -62 139 -15
0 -31 -10 -42 -26z"/>
<path d="M4356 401 c-20 -21 -40 -143 -31 -181 8 -32 43 -70 65 -70 23 0 59
41 66 75 8 43 -12 154 -32 176 -22 24 -46 24 -68 0z"/>
<path d="M4655 389 c-25 -48 -31 -158 -11 -197 24 -46 62 -53 94 -17 22 27 24
35 20 111 -5 94 -24 134 -63 134 -17 0 -29 -9 -40 -31z"/>
<path d="M4963 393 c-13 -19 -19 -52 -21 -108 -4 -75 -2 -84 20 -110 32 -36
70 -29 94 17 27 52 7 195 -30 220 -22 15 -46 8 -63 -19z"/>
<path d="M5277 402 c-21 -23 -41 -134 -33 -177 7 -34 43 -75 66 -75 9 0 27 12
41 26 21 23 24 34 22 96 -4 116 -51 180 -96 130z"/>
</g>
</svg>
