<?xml version="1.0" standalone="no"?>
<!DOCTYPE svg PUBLIC "-//W3C//DTD SVG 20010904//EN"
 "http://www.w3.org/TR/2001/REC-SVG-20010904/DTD/svg10.dtd">
<svg version="1.0" xmlns="http://www.w3.org/2000/svg"
 width="749.000000pt" height="515.000000pt" viewBox="0 0 749.000000 515.000000"
 preserveAspectRatio="xMidYMid meet">
<metadata>
Created by potrace 1.15, written by Peter Selinger 2001-2017
</metadata>
<g transform="translate(0.000000,515.000000) scale(0.100000,-0.100000)"
fill="#000000" stroke="none">
<path d="M4645 5114 c-620 -17 -1172 -41 -1581 -69 -169 -12 -239 -12 -355 -3
-237 18 -721 16 -864 -5 -223 -33 -631 -118 -1025 -213 -236 -57 -295 -76
-405 -133 -284 -146 -395 -425 -395 -986 0 -219 16 -605 41 -1005 15 -247 22
-465 23 -830 3 -506 6 -555 46 -711 69 -268 243 -460 475 -525 98 -27 321 -29
635 -5 623 48 1524 114 2310 171 870 63 1502 111 1750 134 80 7 147 12 148 10
7 -5 -20 -192 -48 -334 -25 -126 -74 -310 -124 -472 -18 -58 -12 -67 71 -98
112 -42 262 -26 397 42 259 130 507 456 602 792 l16 59 97 -6 c117 -7 345 7
461 29 111 20 198 62 248 120 52 58 118 209 132 299 5 39 21 135 35 215 98
585 124 1172 85 1925 -34 649 -65 1043 -88 1127 -44 156 -156 268 -349 348
-101 42 -340 96 -483 110 -109 10 -1587 21 -1855 14z m2089 -120 c164 -42 310
-160 380 -306 78 -163 100 -311 116 -783 6 -159 15 -434 21 -610 7 -193 9
-615 6 -1065 l-5 -745 -26 -110 c-14 -60 -34 -121 -44 -135 -25 -34 -77 -68
-121 -80 -54 -14 -181 -27 -175 -18 3 4 11 8 17 8 30 0 121 53 168 97 57 53
91 113 107 188 14 67 36 1666 29 2085 -8 452 -39 797 -88 986 -51 201 -162
346 -320 423 -72 34 -162 63 -269 85 -14 3 13 3 60 0 47 -3 112 -12 144 -20z
m-4534 -15 c-107 -10 -305 -30 -439 -44 -134 -14 -245 -24 -247 -22 -5 5 269
55 391 71 55 8 187 14 295 14 l195 0 -195 -19z m3983 -9 c521 -31 691 -101
805 -328 67 -135 120 -410 142 -737 11 -176 12 -994 1 -1865 -8 -646 -7 -631
-91 -723 -90 -98 -204 -133 -475 -143 -93 -3 -186 -10 -205 -15 -57 -14 -85
-53 -115 -158 -62 -223 -203 -427 -395 -573 -66 -50 -271 -158 -300 -158 -15
0 -15 9 -2 92 13 85 31 634 24 700 l-3 28 -184 2 -185 3 110 120 c60 66 110
126 110 133 0 19 -17 14 -33 -8 -8 -12 -65 -75 -127 -140 l-112 -120 -90 0
-91 0 77 80 c42 44 76 84 76 90 0 23 -26 5 -108 -76 -48 -47 -97 -90 -110 -95
-13 -5 -58 -9 -100 -9 l-77 1 113 108 c61 60 112 112 112 116 0 20 -41 -12
-154 -118 l-126 -117 -54 0 c-29 0 -69 -3 -87 -6 -32 -5 -27 1 74 98 59 57
108 106 107 111 -1 21 -32 -3 -134 -103 l-112 -109 -84 -7 -85 -6 104 106 c58
58 102 109 98 112 -8 8 -32 -12 -167 -142 l-85 -82 -84 -6 -84 -7 46 53 c83
93 167 199 167 209 0 20 -18 4 -90 -82 -41 -50 -98 -112 -125 -138 l-50 -48
-99 -7 c-54 -3 -101 -4 -104 -1 -3 3 57 68 133 145 86 86 132 140 122 140 -10
0 -84 -67 -165 -149 l-147 -148 -85 -7 c-47 -4 -98 -10 -115 -13 -26 -5 -15
10 89 121 65 70 116 130 111 134 -4 4 -65 -53 -135 -125 l-128 -133 -89 -10
c-180 -20 -179 -32 -3 145 85 85 151 158 147 162 -4 4 -83 -68 -175 -159
l-167 -166 -92 -9 c-51 -5 -93 -8 -93 -8 0 1 46 47 102 103 56 56 99 105 95
108 -4 4 -58 -43 -120 -103 -127 -123 -99 -110 -287 -129 l-65 -6 50 54 c28
29 96 101 153 159 56 58 102 112 101 120 0 8 -76 -64 -169 -160 l-169 -175
-68 -7 c-37 -5 -85 -8 -107 -8 l-38 -1 166 174 c92 96 163 177 158 180 -9 5
-186 -171 -297 -296 l-60 -66 -84 -8 -84 -7 111 124 c62 68 112 127 112 132 0
20 -25 -4 -135 -127 l-119 -133 -85 -7 c-46 -3 -86 -5 -87 -3 -2 2 97 104 221
226 124 123 225 225 225 228 0 28 -191 -139 -380 -333 -124 -127 -125 -128
-180 -135 -30 -4 -75 -8 -100 -8 l-44 -1 177 178 c159 160 194 202 169 202 -4
0 -94 -87 -201 -194 l-194 -194 -96 -6 c-53 -4 -112 -10 -131 -13 -32 -5 -16
14 205 236 131 132 236 243 232 247 -8 8 -191 -165 -377 -357 l-125 -129 -110
-8 c-60 -5 -112 -7 -114 -5 -2 1 72 77 165 167 93 90 165 167 161 172 -4 4
-87 -71 -185 -169 l-177 -176 -120 -7 -120 -7 201 209 c280 293 308 323 300
331 -4 4 -37 -24 -74 -62 -37 -39 -155 -161 -262 -271 l-195 -202 -63 9 c-35
5 -71 13 -80 18 -12 7 23 48 183 210 109 111 195 204 192 207 -9 10 -237 -207
-332 -315 -44 -50 -84 -91 -88 -91 -13 0 -110 49 -135 68 l-23 18 87 94 c123
136 278 329 270 338 -4 3 -24 -13 -44 -38 -97 -117 -325 -380 -330 -380 -9 0
-82 73 -82 82 0 7 119 145 260 300 28 32 45 58 37 58 -13 0 -217 -216 -285
-303 l-30 -37 -30 38 c-65 82 -66 79 35 186 107 113 208 235 201 242 -3 3 -55
-50 -116 -118 -60 -68 -128 -141 -151 -162 l-40 -39 -25 53 c-24 52 -24 55 -8
74 9 11 81 89 160 174 78 86 140 158 136 161 -6 6 -145 -134 -256 -257 l-66
-74 -17 51 -17 51 53 63 c98 114 202 231 263 294 33 34 56 66 52 70 -10 10
-152 -140 -279 -294 l-92 -111 -18 74 -18 75 33 38 c18 21 111 126 206 233 94
108 172 199 172 202 0 22 -40 -18 -210 -211 -106 -120 -196 -219 -200 -221 -4
-1 -12 36 -19 84 -10 72 -10 89 2 103 7 9 49 59 92 111 44 52 144 161 224 242
79 82 141 151 137 155 -10 11 -315 -301 -396 -405 -73 -94 -78 -93 -79 19 l-1
66 128 150 c70 83 149 176 175 206 27 31 47 62 45 68 -4 12 -164 -166 -280
-311 -34 -43 -66 -79 -70 -79 -5 -1 -8 20 -8 47 0 26 -3 70 -6 97 l-5 50 103
122 c57 67 125 147 152 177 27 31 46 60 41 64 -8 8 -78 -66 -205 -220 l-88
-107 -7 73 -7 74 73 88 c101 121 233 304 225 311 -3 4 -8 4 -9 2 -2 -2 -67
-86 -144 -186 l-141 -181 -5 51 c-5 52 -4 53 76 167 44 63 125 175 180 249 97
132 122 172 99 157 -16 -10 -145 -180 -264 -350 l-98 -139 0 116 0 116 87 103
c48 57 133 156 190 220 57 64 99 119 94 122 -10 6 -141 -138 -286 -314 -43
-52 -82 -96 -87 -98 -4 -2 -8 36 -8 85 l1 88 140 163 c78 90 138 166 135 169
-3 3 -13 -3 -23 -15 -10 -11 -70 -82 -133 -156 l-115 -136 -3 85 -3 86 98 107
c165 179 335 381 331 392 -2 6 -32 -24 -68 -66 -106 -127 -341 -389 -351 -392
-5 -2 -9 39 -9 97 l0 100 62 78 c34 43 107 124 162 181 54 56 96 105 92 109
-9 9 -174 -155 -244 -244 l-57 -72 -3 75 c-2 56 1 82 12 98 9 11 90 111 181
221 90 110 165 203 165 208 0 21 -27 -8 -160 -170 -80 -97 -158 -190 -173
-207 l-29 -31 6 34 c3 18 6 50 6 70 1 31 15 53 101 156 55 66 132 153 170 193
39 40 69 78 67 84 -5 14 -242 -220 -288 -284 -18 -27 -35 -46 -37 -45 -6 6 27
165 53 253 40 139 96 238 183 325 116 116 215 156 505 203 323 53 433 62 1996
161 652 41 1410 91 1685 110 275 20 577 39 670 44 251 12 672 12 868 1z
m-1938 -8 c-97 -7 -1762 -114 -2055 -132 -833 -52 -1271 -102 -1498 -171 -246
-76 -401 -249 -481 -539 -19 -67 -21 -70 -16 -25 28 240 145 419 335 512 308
149 662 217 1555 298 663 60 667 60 1460 60 407 0 722 -1 700 -3z m2879 -122
c76 -63 114 -117 141 -204 26 -81 32 -132 55 -506 5 -91 18 -275 27 -410 22
-317 25 -1266 5 -1497 -25 -281 -28 -250 -24 212 8 798 -30 1708 -84 2026 -25
151 -81 291 -151 377 -43 53 -32 54 31 2z m-6649 -192 c-156 -82 -258 -215
-304 -396 -25 -97 -47 -287 -56 -477 -11 -244 13 -1216 40 -1600 18 -268 18
-270 3 -283 -13 -10 -16 16 -21 206 -4 119 -17 386 -29 592 -26 461 -32 1234
-9 1390 30 209 84 341 187 450 53 55 85 80 156 115 50 25 95 45 102 45 6 0
-25 -19 -69 -42z m-291 -2888 c12 -242 59 -545 107 -690 28 -84 83 -195 123
-245 49 -60 53 -71 19 -47 -61 43 -148 150 -186 227 -77 155 -107 339 -107
653 0 159 2 188 17 204 9 10 17 17 19 16 1 -2 4 -55 8 -118z m253 -753 c32
-43 35 -52 24 -69 -17 -27 -3 -38 15 -13 14 19 14 19 29 -2 21 -29 130 -110
190 -140 27 -14 52 -29 55 -32 3 -4 14 -8 25 -8 52 -3 155 -28 152 -38 -5 -14
-149 -18 -211 -5 -176 36 -311 185 -376 415 -30 103 -25 108 20 21 22 -44 57
-101 77 -129z m6643 78 c-17 -21 -104 -51 -201 -70 -90 -18 -427 -33 -475 -21
-58 15 1 27 252 51 279 27 405 42 412 50 13 12 23 3 12 -10z m-2000 -69 c0 -8
-12 -17 -27 -20 -84 -16 -846 -42 -803 -26 22 7 246 23 690 49 74 5 136 9 138
10 1 0 2 -5 2 -13z m-1657 -150 c4 -11 -9 -15 -56 -20 -153 -15 -1423 -107
-1441 -104 -48 7 954 109 1204 123 63 4 117 8 119 11 2 2 41 4 87 4 61 0 83
-4 87 -14z m2616 -448 c-43 -60 -141 -158 -207 -206 -121 -90 -230 -132 -337
-132 -58 0 -155 24 -155 38 0 4 14 47 31 97 16 50 27 74 24 55 -17 -95 -18
-142 -4 -151 23 -14 151 -10 210 7 120 35 260 127 384 253 38 39 71 71 73 71
2 0 -7 -14 -19 -32z"/>
</g>
</svg>
